<?xml version="1.0" encoding="UTF-8"?>
<svg xmlns="http://www.w3.org/2000/svg" xmlns:xlink="http://www.w3.org/1999/xlink" width="220pt" height="130pt" viewBox="0 0 220 130" version="1.1">
<g id="surface1">
<rect x="0" y="0" width="220" height="130" style="fill:rgb(100%,100%,100%);fill-opacity:1;stroke:none;"/>
<path style=" stroke:none;fill-rule:nonzero;fill:rgb(0%,0%,0%);fill-opacity:1;" d="M 16 8 L 18 8 L 18 112 L 16 112 Z M 16 8 "/>
<path style=" stroke:none;fill-rule:nonzero;fill:rgb(0%,0%,0%);fill-opacity:1;" d="M 20 8 L 22 8 L 22 112 L 20 112 Z M 20 8 "/>
<path style=" stroke:none;fill-rule:nonzero;fill:rgb(0%,0%,0%);fill-opacity:1;" d="M 24 8 L 26 8 L 26 100 L 24 100 Z M 24 8 "/>
<path style=" stroke:none;fill-rule:nonzero;fill:rgb(0%,0%,0%);fill-opacity:1;" d="M 26 8 L 28 8 L 28 100 L 26 100 Z M 26 8 "/>
<path style=" stroke:none;fill-rule:nonzero;fill:rgb(0%,0%,0%);fill-opacity:1;" d="M 28 8 L 30 8 L 30 100 L 28 100 Z M 28 8 "/>
<path style=" stroke:none;fill-rule:nonzero;fill:rgb(0%,0%,0%);fill-opacity:1;" d="M 32 8 L 34 8 L 34 100 L 32 100 Z M 32 8 "/>
<path style=" stroke:none;fill-rule:nonzero;fill:rgb(0%,0%,0%);fill-opacity:1;" d="M 34 8 L 36 8 L 36 100 L 34 100 Z M 34 8 "/>
<path style=" stroke:none;fill-rule:nonzero;fill:rgb(0%,0%,0%);fill-opacity:1;" d="M 38 8 L 40 8 L 40 100 L 38 100 Z M 38 8 "/>
<path style=" stroke:none;fill-rule:nonzero;fill:rgb(0%,0%,0%);fill-opacity:1;" d="M 40 8 L 42 8 L 42 100 L 40 100 Z M 40 8 "/>
<path style=" stroke:none;fill-rule:nonzero;fill:rgb(0%,0%,0%);fill-opacity:1;" d="M 46 8 L 48 8 L 48 100 L 46 100 Z M 46 8 "/>
<path style=" stroke:none;fill-rule:nonzero;fill:rgb(0%,0%,0%);fill-opacity:1;" d="M 48 8 L 50 8 L 50 100 L 48 100 Z M 48 8 "/>
<path style=" stroke:none;fill-rule:nonzero;fill:rgb(0%,0%,0%);fill-opacity:1;" d="M 54 8 L 56 8 L 56 100 L 54 100 Z M 54 8 "/>
<path style=" stroke:none;fill-rule:nonzero;fill:rgb(0%,0%,0%);fill-opacity:1;" d="M 56 8 L 58 8 L 58 100 L 56 100 Z M 56 8 "/>
<path style=" stroke:none;fill-rule:nonzero;fill:rgb(0%,0%,0%);fill-opacity:1;" d="M 62 8 L 64 8 L 64 100 L 62 100 Z M 62 8 "/>
<path style=" stroke:none;fill-rule:nonzero;fill:rgb(0%,0%,0%);fill-opacity:1;" d="M 68 8 L 70 8 L 70 100 L 68 100 Z M 68 8 "/>
<path style=" stroke:none;fill-rule:nonzero;fill:rgb(0%,0%,0%);fill-opacity:1;" d="M 70 8 L 72 8 L 72 100 L 70 100 Z M 70 8 "/>
<path style=" stroke:none;fill-rule:nonzero;fill:rgb(0%,0%,0%);fill-opacity:1;" d="M 74 8 L 76 8 L 76 100 L 74 100 Z M 74 8 "/>
<path style=" stroke:none;fill-rule:nonzero;fill:rgb(0%,0%,0%);fill-opacity:1;" d="M 76 8 L 78 8 L 78 100 L 76 100 Z M 76 8 "/>
<path style=" stroke:none;fill-rule:nonzero;fill:rgb(0%,0%,0%);fill-opacity:1;" d="M 80 8 L 82 8 L 82 100 L 80 100 Z M 80 8 "/>
<path style=" stroke:none;fill-rule:nonzero;fill:rgb(0%,0%,0%);fill-opacity:1;" d="M 82 8 L 84 8 L 84 100 L 82 100 Z M 82 8 "/>
<path style=" stroke:none;fill-rule:nonzero;fill:rgb(0%,0%,0%);fill-opacity:1;" d="M 84 8 L 86 8 L 86 100 L 84 100 Z M 84 8 "/>
<path style=" stroke:none;fill-rule:nonzero;fill:rgb(0%,0%,0%);fill-opacity:1;" d="M 90 8 L 92 8 L 92 100 L 90 100 Z M 90 8 "/>
<path style=" stroke:none;fill-rule:nonzero;fill:rgb(0%,0%,0%);fill-opacity:1;" d="M 94 8 L 96 8 L 96 100 L 94 100 Z M 94 8 "/>
<path style=" stroke:none;fill-rule:nonzero;fill:rgb(0%,0%,0%);fill-opacity:1;" d="M 96 8 L 98 8 L 98 100 L 96 100 Z M 96 8 "/>
<path style=" stroke:none;fill-rule:nonzero;fill:rgb(0%,0%,0%);fill-opacity:1;" d="M 98 8 L 100 8 L 100 100 L 98 100 Z M 98 8 "/>
<path style=" stroke:none;fill-rule:nonzero;fill:rgb(0%,0%,0%);fill-opacity:1;" d="M 100 8 L 102 8 L 102 100 L 100 100 Z M 100 8 "/>
<path style=" stroke:none;fill-rule:nonzero;fill:rgb(0%,0%,0%);fill-opacity:1;" d="M 104 8 L 106 8 L 106 100 L 104 100 Z M 104 8 "/>
<path style=" stroke:none;fill-rule:nonzero;fill:rgb(0%,0%,0%);fill-opacity:1;" d="M 108 8 L 110 8 L 110 112 L 108 112 Z M 108 8 "/>
<path style=" stroke:none;fill-rule:nonzero;fill:rgb(0%,0%,0%);fill-opacity:1;" d="M 112 8 L 114 8 L 114 112 L 112 112 Z M 112 8 "/>
<path style=" stroke:none;fill-rule:nonzero;fill:rgb(0%,0%,0%);fill-opacity:1;" d="M 116 8 L 118 8 L 118 100 L 116 100 Z M 116 8 "/>
<path style=" stroke:none;fill-rule:nonzero;fill:rgb(0%,0%,0%);fill-opacity:1;" d="M 118 8 L 120 8 L 120 100 L 118 100 Z M 118 8 "/>
<path style=" stroke:none;fill-rule:nonzero;fill:rgb(0%,0%,0%);fill-opacity:1;" d="M 120 8 L 122 8 L 122 100 L 120 100 Z M 120 8 "/>
<path style=" stroke:none;fill-rule:nonzero;fill:rgb(0%,0%,0%);fill-opacity:1;" d="M 126 8 L 128 8 L 128 100 L 126 100 Z M 126 8 "/>
<path style=" stroke:none;fill-rule:nonzero;fill:rgb(0%,0%,0%);fill-opacity:1;" d="M 130 8 L 132 8 L 132 100 L 130 100 Z M 130 8 "/>
<path style=" stroke:none;fill-rule:nonzero;fill:rgb(0%,0%,0%);fill-opacity:1;" d="M 132 8 L 134 8 L 134 100 L 132 100 Z M 132 8 "/>
<path style=" stroke:none;fill-rule:nonzero;fill:rgb(0%,0%,0%);fill-opacity:1;" d="M 134 8 L 136 8 L 136 100 L 134 100 Z M 134 8 "/>
<path style=" stroke:none;fill-rule:nonzero;fill:rgb(0%,0%,0%);fill-opacity:1;" d="M 140 8 L 142 8 L 142 100 L 140 100 Z M 140 8 "/>
<path style=" stroke:none;fill-rule:nonzero;fill:rgb(0%,0%,0%);fill-opacity:1;" d="M 144 8 L 146 8 L 146 100 L 144 100 Z M 144 8 "/>
<path style=" stroke:none;fill-rule:nonzero;fill:rgb(0%,0%,0%);fill-opacity:1;" d="M 146 8 L 148 8 L 148 100 L 146 100 Z M 146 8 "/>
<path style=" stroke:none;fill-rule:nonzero;fill:rgb(0%,0%,0%);fill-opacity:1;" d="M 152 8 L 154 8 L 154 100 L 152 100 Z M 152 8 "/>
<path style=" stroke:none;fill-rule:nonzero;fill:rgb(0%,0%,0%);fill-opacity:1;" d="M 154 8 L 156 8 L 156 100 L 154 100 Z M 154 8 "/>
<path style=" stroke:none;fill-rule:nonzero;fill:rgb(0%,0%,0%);fill-opacity:1;" d="M 158 8 L 160 8 L 160 100 L 158 100 Z M 158 8 "/>
<path style=" stroke:none;fill-rule:nonzero;fill:rgb(0%,0%,0%);fill-opacity:1;" d="M 160 8 L 162 8 L 162 100 L 160 100 Z M 160 8 "/>
<path style=" stroke:none;fill-rule:nonzero;fill:rgb(0%,0%,0%);fill-opacity:1;" d="M 164 8 L 166 8 L 166 100 L 164 100 Z M 164 8 "/>
<path style=" stroke:none;fill-rule:nonzero;fill:rgb(0%,0%,0%);fill-opacity:1;" d="M 166 8 L 168 8 L 168 100 L 166 100 Z M 166 8 "/>
<path style=" stroke:none;fill-rule:nonzero;fill:rgb(0%,0%,0%);fill-opacity:1;" d="M 172 8 L 174 8 L 174 100 L 172 100 Z M 172 8 "/>
<path style=" stroke:none;fill-rule:nonzero;fill:rgb(0%,0%,0%);fill-opacity:1;" d="M 174 8 L 176 8 L 176 100 L 174 100 Z M 174 8 "/>
<path style=" stroke:none;fill-rule:nonzero;fill:rgb(0%,0%,0%);fill-opacity:1;" d="M 176 8 L 178 8 L 178 100 L 176 100 Z M 176 8 "/>
<path style=" stroke:none;fill-rule:nonzero;fill:rgb(0%,0%,0%);fill-opacity:1;" d="M 182 8 L 184 8 L 184 100 L 182 100 Z M 182 8 "/>
<path style=" stroke:none;fill-rule:nonzero;fill:rgb(0%,0%,0%);fill-opacity:1;" d="M 186 8 L 188 8 L 188 100 L 186 100 Z M 186 8 "/>
<path style=" stroke:none;fill-rule:nonzero;fill:rgb(0%,0%,0%);fill-opacity:1;" d="M 188 8 L 190 8 L 190 100 L 188 100 Z M 188 8 "/>
<path style=" stroke:none;fill-rule:nonzero;fill:rgb(0%,0%,0%);fill-opacity:1;" d="M 192 8 L 194 8 L 194 100 L 192 100 Z M 192 8 "/>
<path style=" stroke:none;fill-rule:nonzero;fill:rgb(0%,0%,0%);fill-opacity:1;" d="M 194 8 L 196 8 L 196 100 L 194 100 Z M 194 8 "/>
<path style=" stroke:none;fill-rule:nonzero;fill:rgb(0%,0%,0%);fill-opacity:1;" d="M 200 8 L 202 8 L 202 112 L 200 112 Z M 200 8 "/>
<path style=" stroke:none;fill-rule:nonzero;fill:rgb(0%,0%,0%);fill-opacity:1;" d="M 204 8 L 206 8 L 206 112 L 204 112 Z M 204 8 "/>
<path style=" stroke:none;fill-rule:nonzero;fill:rgb(0%,0%,0%);fill-opacity:1;" d="M 6.179688 109.011719 C 5.519531 108.773438 5.035156 108.429688 4.722656 107.984375 C 4.40625 107.539062 4.246094 107.007812 4.25 106.382812 C 4.246094 105.449219 4.582031 104.660156 5.257812 104.019531 C 5.929688 103.382812 6.828125 103.0625 7.949219 103.0625 C 9.070312 103.0625 9.976562 103.390625 10.664062 104.042969 C 11.347656 104.699219 11.6875 105.496094 11.691406 106.429688 C 11.6875 107.03125 11.53125 107.550781 11.21875 107.988281 C 10.902344 108.433594 10.425781 108.773438 9.792969 109.011719 C 10.582031 109.273438 11.183594 109.691406 11.597656 110.261719 C 12.007812 110.839844 12.214844 111.523438 12.21875 112.316406 C 12.214844 113.421875 11.828125 114.347656 11.050781 115.09375 C 10.269531 115.84375 9.242188 116.214844 7.976562 116.21875 C 6.699219 116.214844 5.675781 115.84375 4.898438 115.089844 C 4.117188 114.339844 3.726562 113.398438 3.730469 112.273438 C 3.726562 111.4375 3.9375 110.738281 4.367188 110.167969 C 4.789062 109.605469 5.394531 109.21875 6.179688 109.011719 Z M 5.867188 106.332031 C 5.863281 106.941406 6.058594 107.441406 6.453125 107.828125 C 6.84375 108.214844 7.355469 108.40625 7.984375 108.40625 C 8.589844 108.40625 9.089844 108.214844 9.480469 107.832031 C 9.871094 107.449219 10.066406 106.980469 10.066406 106.421875 C 10.066406 105.84375 9.863281 105.355469 9.464844 104.957031 C 9.058594 104.5625 8.558594 104.363281 7.964844 104.363281 C 7.359375 104.363281 6.859375 104.558594 6.464844 104.945312 C 6.0625 105.332031 5.863281 105.792969 5.867188 106.332031 Z M 5.355469 112.28125 C 5.355469 112.738281 5.460938 113.175781 5.675781 113.59375 C 5.886719 114.019531 6.203125 114.347656 6.628906 114.574219 C 7.046875 114.808594 7.503906 114.921875 7.992188 114.917969 C 8.746094 114.921875 9.367188 114.679688 9.863281 114.191406 C 10.351562 113.707031 10.597656 113.089844 10.601562 112.335938 C 10.597656 111.578125 10.34375 110.945312 9.839844 110.445312 C 9.332031 109.949219 8.699219 109.703125 7.9375 109.699219 C 7.191406 109.703125 6.574219 109.949219 6.089844 110.4375 C 5.597656 110.933594 5.355469 111.546875 5.355469 112.28125 Z M 3 99 "/>
<path style=" stroke:none;fill-rule:nonzero;fill:rgb(0%,0%,0%);fill-opacity:1;" d="M 25.851562 104.804688 L 25.851562 103.28125 L 34.195312 103.28125 L 34.195312 104.511719 C 33.367188 105.386719 32.554688 106.546875 31.753906 107.992188 C 30.945312 109.441406 30.324219 110.929688 29.886719 112.457031 C 29.570312 113.539062 29.367188 114.71875 29.28125 116 L 27.65625 116 C 27.667969 114.988281 27.867188 113.765625 28.25 112.328125 C 28.628906 110.894531 29.175781 109.507812 29.890625 108.171875 C 30.601562 106.839844 31.359375 105.71875 32.164062 104.804688 Z M 25 99 "/>
<path style=" stroke:none;fill-rule:nonzero;fill:rgb(0%,0%,0%);fill-opacity:1;" d="M 45.707031 116 L 44.125 116 L 44.125 105.917969 C 43.742188 106.285156 43.242188 106.648438 42.625 107.011719 C 42.003906 107.375 41.449219 107.648438 40.960938 107.828125 L 40.960938 106.296875 C 41.84375 105.882812 42.617188 105.378906 43.28125 104.785156 C 43.941406 104.195312 44.410156 103.621094 44.6875 103.0625 L 45.707031 103.0625 Z M 39 99 "/>
<path style=" stroke:none;fill-rule:nonzero;fill:rgb(0%,0%,0%);fill-opacity:1;" d="M 59.707031 116 L 58.125 116 L 58.125 105.917969 C 57.742188 106.285156 57.242188 106.648438 56.625 107.011719 C 56.003906 107.375 55.449219 107.648438 54.960938 107.828125 L 54.960938 106.296875 C 55.84375 105.882812 56.617188 105.378906 57.28125 104.785156 C 57.941406 104.195312 58.410156 103.621094 58.6875 103.0625 L 59.707031 103.0625 Z M 53 99 "/>
<path style=" stroke:none;fill-rule:nonzero;fill:rgb(0%,0%,0%);fill-opacity:1;" d="M 76.0625 114.480469 L 76.0625 116 L 67.546875 116 C 67.53125 115.621094 67.59375 115.257812 67.730469 114.902344 C 67.945312 114.324219 68.292969 113.75 68.769531 113.1875 C 69.246094 112.625 69.933594 111.976562 70.839844 111.234375 C 72.238281 110.09375 73.1875 109.183594 73.679688 108.507812 C 74.171875 107.839844 74.417969 107.207031 74.417969 106.605469 C 74.417969 105.980469 74.191406 105.449219 73.746094 105.019531 C 73.292969 104.589844 72.710938 104.375 71.992188 104.371094 C 71.230469 104.375 70.621094 104.605469 70.164062 105.058594 C 69.703125 105.519531 69.46875 106.152344 69.46875 106.957031 L 67.84375 106.789062 C 67.953125 105.578125 68.371094 104.65625 69.101562 104.015625 C 69.824219 103.382812 70.800781 103.0625 72.027344 103.0625 C 73.261719 103.0625 74.238281 103.40625 74.960938 104.089844 C 75.679688 104.777344 76.039062 105.628906 76.042969 106.640625 C 76.039062 107.160156 75.933594 107.664062 75.726562 108.160156 C 75.511719 108.660156 75.164062 109.1875 74.675781 109.734375 C 74.1875 110.289062 73.375 111.042969 72.238281 112 C 71.285156 112.800781 70.675781 113.339844 70.410156 113.621094 C 70.140625 113.90625 69.917969 114.195312 69.742188 114.480469 Z M 67 99 "/>
<path style=" stroke:none;fill-rule:nonzero;fill:rgb(0%,0%,0%);fill-opacity:1;" d="M 81.746094 112.625 L 83.40625 112.484375 C 83.527344 113.292969 83.8125 113.902344 84.265625 114.308594 C 84.710938 114.71875 85.253906 114.921875 85.886719 114.917969 C 86.648438 114.921875 87.292969 114.636719 87.820312 114.058594 C 88.34375 113.488281 88.605469 112.726562 88.609375 111.773438 C 88.605469 110.875 88.351562 110.160156 87.847656 109.636719 C 87.339844 109.117188 86.675781 108.859375 85.859375 108.855469 C 85.34375 108.859375 84.886719 108.972656 84.480469 109.203125 C 84.070312 109.433594 83.746094 109.734375 83.515625 110.101562 L 82.027344 109.910156 L 83.277344 103.289062 L 89.683594 103.289062 L 89.683594 104.804688 L 84.542969 104.804688 L 83.847656 108.265625 C 84.621094 107.726562 85.429688 107.457031 86.28125 107.457031 C 87.402344 107.457031 88.351562 107.847656 89.128906 108.628906 C 89.898438 109.410156 90.285156 110.414062 90.289062 111.632812 C 90.285156 112.804688 89.945312 113.8125 89.269531 114.65625 C 88.441406 115.699219 87.316406 116.214844 85.886719 116.21875 C 84.714844 116.214844 83.757812 115.890625 83.015625 115.234375 C 82.273438 114.582031 81.847656 113.710938 81.746094 112.625 Z M 81 99 "/>
<path style=" stroke:none;fill-rule:nonzero;fill:rgb(0%,0%,0%);fill-opacity:1;" d="M 95.757812 112.597656 L 97.335938 112.386719 C 97.515625 113.289062 97.824219 113.9375 98.265625 114.328125 C 98.699219 114.726562 99.230469 114.921875 99.859375 114.917969 C 100.601562 114.921875 101.230469 114.664062 101.746094 114.144531 C 102.253906 113.632812 102.511719 112.996094 102.515625 112.230469 C 102.511719 111.507812 102.273438 110.90625 101.800781 110.433594 C 101.324219 109.964844 100.722656 109.730469 99.992188 109.726562 C 99.691406 109.730469 99.316406 109.789062 98.875 109.898438 L 99.050781 108.511719 C 99.152344 108.527344 99.238281 108.535156 99.304688 108.53125 C 99.976562 108.535156 100.582031 108.359375 101.125 108.003906 C 101.660156 107.65625 101.929688 107.113281 101.933594 106.375 C 101.929688 105.800781 101.734375 105.320312 101.34375 104.9375 C 100.949219 104.554688 100.441406 104.363281 99.824219 104.363281 C 99.207031 104.363281 98.695312 104.558594 98.285156 104.945312 C 97.875 105.332031 97.613281 105.910156 97.496094 106.683594 L 95.914062 106.402344 C 96.105469 105.34375 96.542969 104.523438 97.230469 103.9375 C 97.914062 103.355469 98.765625 103.0625 99.789062 103.0625 C 100.488281 103.0625 101.136719 103.214844 101.730469 103.515625 C 102.320312 103.820312 102.773438 104.230469 103.089844 104.75 C 103.402344 105.273438 103.558594 105.828125 103.5625 106.410156 C 103.558594 106.96875 103.410156 107.476562 103.113281 107.933594 C 102.8125 108.390625 102.371094 108.753906 101.785156 109.023438 C 102.546875 109.199219 103.136719 109.5625 103.5625 110.117188 C 103.980469 110.671875 104.191406 111.367188 104.195312 112.195312 C 104.191406 113.324219 103.78125 114.277344 102.964844 115.054688 C 102.140625 115.835938 101.105469 116.222656 99.851562 116.226562 C 98.71875 116.222656 97.777344 115.890625 97.035156 115.21875 C 96.285156 114.546875 95.859375 113.671875 95.757812 112.597656 Z M 95 99 "/>
<path style=" stroke:none;fill-rule:nonzero;fill:rgb(0%,0%,0%);fill-opacity:1;" d="M 117.746094 109.644531 C 117.742188 108.125 117.898438 106.898438 118.214844 105.96875 C 118.527344 105.039062 118.996094 104.324219 119.613281 103.820312 C 120.230469 103.316406 121.007812 103.0625 121.949219 103.0625 C 122.636719 103.0625 123.242188 103.203125 123.765625 103.480469 C 124.285156 103.761719 124.714844 104.164062 125.058594 104.683594 C 125.394531 105.210938 125.664062 105.847656 125.859375 106.601562 C 126.050781 107.355469 126.144531 108.371094 126.148438 109.644531 C 126.144531 111.160156 125.992188 112.382812 125.683594 113.308594 C 125.371094 114.238281 124.90625 114.953125 124.289062 115.460938 C 123.671875 115.964844 122.890625 116.214844 121.949219 116.21875 C 120.703125 116.214844 119.726562 115.773438 119.023438 114.882812 C 118.167969 113.8125 117.742188 112.066406 117.746094 109.644531 Z M 119.375 109.644531 C 119.371094 111.765625 119.621094 113.175781 120.117188 113.871094 C 120.609375 114.574219 121.21875 114.921875 121.949219 114.917969 C 122.671875 114.921875 123.28125 114.570312 123.78125 113.863281 C 124.273438 113.164062 124.523438 111.757812 124.523438 109.644531 C 124.523438 107.527344 124.273438 106.117188 123.78125 105.417969 C 123.28125 104.722656 122.664062 104.375 121.929688 104.371094 C 121.199219 104.375 120.621094 104.683594 120.191406 105.296875 C 119.644531 106.082031 119.371094 107.53125 119.375 109.644531 Z M 117 99 "/>
<path style=" stroke:none;fill-rule:nonzero;fill:rgb(0%,0%,0%);fill-opacity:1;" d="M 131.746094 109.644531 C 131.742188 108.125 131.898438 106.898438 132.214844 105.96875 C 132.527344 105.039062 132.996094 104.324219 133.613281 103.820312 C 134.230469 103.316406 135.007812 103.0625 135.949219 103.0625 C 136.636719 103.0625 137.242188 103.203125 137.765625 103.480469 C 138.285156 103.761719 138.714844 104.164062 139.058594 104.683594 C 139.394531 105.210938 139.664062 105.847656 139.859375 106.601562 C 140.050781 107.355469 140.144531 108.371094 140.148438 109.644531 C 140.144531 111.160156 139.992188 112.382812 139.683594 113.308594 C 139.371094 114.238281 138.90625 114.953125 138.289062 115.460938 C 137.671875 115.964844 136.890625 116.214844 135.949219 116.21875 C 134.703125 116.214844 133.726562 115.773438 133.023438 114.882812 C 132.167969 113.8125 131.742188 112.066406 131.746094 109.644531 Z M 133.375 109.644531 C 133.371094 111.765625 133.621094 113.175781 134.117188 113.871094 C 134.609375 114.574219 135.21875 114.921875 135.949219 114.917969 C 136.671875 114.921875 137.28125 114.570312 137.78125 113.863281 C 138.273438 113.164062 138.523438 111.757812 138.523438 109.644531 C 138.523438 107.527344 138.273438 106.117188 137.78125 105.417969 C 137.28125 104.722656 136.664062 104.375 135.929688 104.371094 C 135.199219 104.375 134.621094 104.683594 134.191406 105.296875 C 133.644531 106.082031 133.371094 107.53125 133.375 109.644531 Z M 131 99 "/>
<path style=" stroke:none;fill-rule:nonzero;fill:rgb(0%,0%,0%);fill-opacity:1;" d="M 151.707031 116 L 150.125 116 L 150.125 105.917969 C 149.742188 106.285156 149.242188 106.648438 148.625 107.011719 C 148.003906 107.375 147.449219 107.648438 146.960938 107.828125 L 146.960938 106.296875 C 147.84375 105.882812 148.617188 105.378906 149.28125 104.785156 C 149.941406 104.195312 150.410156 103.621094 150.6875 103.0625 L 151.707031 103.0625 Z M 145 99 "/>
<path style=" stroke:none;fill-rule:nonzero;fill:rgb(0%,0%,0%);fill-opacity:1;" d="M 168.0625 114.480469 L 168.0625 116 L 159.546875 116 C 159.53125 115.621094 159.59375 115.257812 159.730469 114.902344 C 159.945312 114.324219 160.292969 113.75 160.769531 113.1875 C 161.246094 112.625 161.933594 111.976562 162.839844 111.234375 C 164.238281 110.09375 165.1875 109.183594 165.679688 108.507812 C 166.171875 107.839844 166.417969 107.207031 166.417969 106.605469 C 166.417969 105.980469 166.191406 105.449219 165.746094 105.019531 C 165.292969 104.589844 164.710938 104.375 163.992188 104.371094 C 163.230469 104.375 162.621094 104.605469 162.164062 105.058594 C 161.703125 105.519531 161.46875 106.152344 161.46875 106.957031 L 159.84375 106.789062 C 159.953125 105.578125 160.371094 104.65625 161.101562 104.015625 C 161.824219 103.382812 162.800781 103.0625 164.027344 103.0625 C 165.261719 103.0625 166.238281 103.40625 166.960938 104.089844 C 167.679688 104.777344 168.039062 105.628906 168.042969 106.640625 C 168.039062 107.160156 167.933594 107.664062 167.726562 108.160156 C 167.511719 108.660156 167.164062 109.1875 166.675781 109.734375 C 166.1875 110.289062 165.375 111.042969 164.238281 112 C 163.285156 112.800781 162.675781 113.339844 162.410156 113.621094 C 162.140625 113.90625 161.917969 114.195312 161.742188 114.480469 Z M 159 99 "/>
<path style=" stroke:none;fill-rule:nonzero;fill:rgb(0%,0%,0%);fill-opacity:1;" d="M 173.746094 109.644531 C 173.742188 108.125 173.898438 106.898438 174.214844 105.96875 C 174.527344 105.039062 174.996094 104.324219 175.613281 103.820312 C 176.230469 103.316406 177.007812 103.0625 177.949219 103.0625 C 178.636719 103.0625 179.242188 103.203125 179.765625 103.480469 C 180.285156 103.761719 180.714844 104.164062 181.058594 104.683594 C 181.394531 105.210938 181.664062 105.847656 181.859375 106.601562 C 182.050781 107.355469 182.144531 108.371094 182.148438 109.644531 C 182.144531 111.160156 181.992188 112.382812 181.683594 113.308594 C 181.371094 114.238281 180.90625 114.953125 180.289062 115.460938 C 179.671875 115.964844 178.890625 116.214844 177.949219 116.21875 C 176.703125 116.214844 175.726562 115.773438 175.023438 114.882812 C 174.167969 113.8125 173.742188 112.066406 173.746094 109.644531 Z M 175.375 109.644531 C 175.371094 111.765625 175.621094 113.175781 176.117188 113.871094 C 176.609375 114.574219 177.21875 114.921875 177.949219 114.917969 C 178.671875 114.921875 179.28125 114.570312 179.78125 113.863281 C 180.273438 113.164062 180.523438 111.757812 180.523438 109.644531 C 180.523438 107.527344 180.273438 106.117188 179.78125 105.417969 C 179.28125 104.722656 178.664062 104.375 177.929688 104.371094 C 177.199219 104.375 176.621094 104.683594 176.191406 105.296875 C 175.644531 106.082031 175.371094 107.53125 175.375 109.644531 Z M 173 99 "/>
<path style=" stroke:none;fill-rule:nonzero;fill:rgb(0%,0%,0%);fill-opacity:1;" d="M 196.0625 114.480469 L 196.0625 116 L 187.546875 116 C 187.53125 115.621094 187.59375 115.257812 187.730469 114.902344 C 187.945312 114.324219 188.292969 113.75 188.769531 113.1875 C 189.246094 112.625 189.933594 111.976562 190.839844 111.234375 C 192.238281 110.09375 193.1875 109.183594 193.679688 108.507812 C 194.171875 107.839844 194.417969 107.207031 194.417969 106.605469 C 194.417969 105.980469 194.191406 105.449219 193.746094 105.019531 C 193.292969 104.589844 192.710938 104.375 191.992188 104.371094 C 191.230469 104.375 190.621094 104.605469 190.164062 105.058594 C 189.703125 105.519531 189.46875 106.152344 189.46875 106.957031 L 187.84375 106.789062 C 187.953125 105.578125 188.371094 104.65625 189.101562 104.015625 C 189.824219 103.382812 190.800781 103.0625 192.027344 103.0625 C 193.261719 103.0625 194.238281 103.40625 194.960938 104.089844 C 195.679688 104.777344 196.039062 105.628906 196.042969 106.640625 C 196.039062 107.160156 195.933594 107.664062 195.726562 108.160156 C 195.511719 108.660156 195.164062 109.1875 194.675781 109.734375 C 194.1875 110.289062 193.375 111.042969 192.238281 112 C 191.285156 112.800781 190.675781 113.339844 190.410156 113.621094 C 190.140625 113.90625 189.917969 114.195312 189.742188 114.480469 Z M 187 99 "/>
</g>
</svg>
